<svg width="49" height="49" viewBox="0 0 49 49" fill="none"
    xmlns="http://www.w3.org/2000/svg">
    <path d="M24.5 48C37.4787 48 48 37.4787 48 24.5C48 11.5213 37.4787 1 24.5 1C11.5213 1 1 11.5213 1 24.5C1 37.4787 11.5213 48 24.5 48Z" stroke="white" stroke-opacity="0.5" stroke-width="2"/>
    <path fill-rule="evenodd" clip-rule="evenodd" d="M26.7944 24.8527L33.3872 18.2591C33.5685 18.0776 33.6686 17.8355 33.6689 17.5773C33.6689 17.3189 33.5688 17.0765 33.3872 16.8953L32.8094 16.3176C32.6278 16.1357 32.3857 16.0361 32.1272 16.0361C31.8691 16.0361 31.627 16.1357 31.4454 16.3176L24.8525 22.9108L18.2594 16.3176C18.0781 16.1357 17.8358 16.0361 17.5775 16.0361C17.3194 16.0361 17.0772 16.1357 16.8958 16.3176L16.3178 16.8953C15.9416 17.2715 15.9416 17.8834 16.3178 18.2591L22.9107 24.8527L16.3178 31.4459C16.1363 31.6277 16.0364 31.8699 16.0364 32.1281C16.0364 32.3863 16.1363 32.6284 16.3178 32.8101L16.8957 33.3877C17.077 33.5695 17.3194 33.6693 17.5773 33.6693C17.8357 33.6693 18.0779 33.5695 18.2593 33.3877L24.8524 26.7945L31.4452 33.3877C31.6269 33.5695 31.869 33.6693 32.127 33.6693C32.3852 33.6693 32.6277 33.5695 32.8093 33.3877L33.387 32.8101C33.5684 32.6286 33.6684 32.3863 33.6684 32.1281C33.6684 31.8699 33.5684 31.6277 33.387 31.4461L26.7944 24.8527Z" fill="white"/>
</svg>
