<svg width="275" height="189" viewBox="0 0 275 189" fill="none"
    xmlns="http://www.w3.org/2000/svg">
    <g clip-path="url(#clip0)">
        <path d="M274.702 78.9826C273.028 85.7663 264.438 89.1666 259.625 94.2273C250.556 103.765 254.088 117.694 259.842 128.85C261.768 132.585 263.954 136.539 263.138 140.544C262.144 145.444 256.859 149.025 251.31 150.924C241.198 154.382 229.088 153.558 219.792 148.774C211.76 144.641 206.006 137.93 197.837 133.973C184.165 127.372 166.763 129.876 151.915 134.414C141.414 137.631 129.93 141.817 119.493 138.458C112.15 136.091 107.072 130.332 104.306 124.239C102.972 121.292 102.002 118.102 99.4521 115.766C97.9353 114.376 95.9563 113.39 93.9315 112.561C75.4221 104.97 52.0398 109.036 34.072 100.616C21.9331 94.931 14.159 84.2072 10.7186 73.0231C7.27818 61.839 7.67784 50.1127 8.55178 38.5937C9.17294 30.4002 10.2876 21.6717 16.6099 15.3531C23.2982 8.67062 34.7751 6.19571 45.1517 7.45606C55.5283 8.71641 64.9299 13.2541 73.2047 18.5847C83.5573 25.2503 93.1346 33.5474 105.83 36.2465C114.475 38.0852 123.569 37.0779 132.486 36.7284C147.394 36.1477 162.307 37.4514 177.13 38.8587C184.353 39.5504 191.599 40.2757 198.76 41.3264C200.365 41.561 201.97 41.814 203.575 42.0855C204.379 42.2229 205.183 42.3651 205.982 42.5121C206.608 42.6253 207.232 42.753 207.855 42.8663C208.839 43.0575 209.82 43.2583 210.797 43.4688C213.605 44.0712 216.385 44.7532 219.137 45.5292C228.705 48.2306 236.375 53.1371 245.411 56.5639C251.3 58.7978 257.721 59.4147 263.297 62.2583C270.159 65.7502 276.462 71.8495 274.702 78.9826Z" fill="white" fill-opacity="0.1"/>
        <path d="M226.3 115.13C239.893 115.13 250.912 104.1 250.912 90.4945C250.912 76.8885 239.893 65.8586 226.3 65.8586C212.706 65.8586 201.687 76.8885 201.687 90.4945C201.687 104.1 212.706 115.13 226.3 115.13Z" fill="white"/>
        <path d="M200.124 108.4C213.717 108.4 224.737 97.3698 224.737 83.7638C224.737 70.1578 213.717 59.1279 200.124 59.1279C186.531 59.1279 175.512 70.1578 175.512 83.7638C175.512 97.3698 186.531 108.4 200.124 108.4Z" fill="white"/>
        <path d="M171.311 108.641C184.904 108.641 195.923 97.6107 195.923 84.0047C195.923 70.3987 184.904 59.3689 171.311 59.3689C157.718 59.3689 146.698 70.3987 146.698 84.0047C146.698 97.6107 157.718 108.641 171.311 108.641Z" fill="white"/>
        <path d="M161.945 115.13C175.538 115.13 186.558 104.1 186.558 90.4945C186.558 76.8885 175.538 65.8586 161.945 65.8586C148.352 65.8586 137.333 76.8885 137.333 90.4945C137.333 104.1 148.352 115.13 161.945 115.13Z" fill="white"/>
        <path d="M146.096 117.294C159.69 117.294 170.709 106.264 170.709 92.6585C170.709 79.0525 159.69 68.0226 146.096 68.0226C132.503 68.0226 121.484 79.0525 121.484 92.6585C121.484 106.264 132.503 117.294 146.096 117.294Z" fill="white"/>
        <path d="M139.613 97.8252C153.206 97.8252 164.225 86.7954 164.225 73.1894C164.225 59.5834 153.206 48.5535 139.613 48.5535C126.019 48.5535 115 59.5834 115 73.1894C115 86.7954 126.019 97.8252 139.613 97.8252Z" fill="white"/>
        <path d="M146.816 75.2305C160.409 75.2305 171.429 64.2007 171.429 50.5947C171.429 36.9887 160.409 25.9589 146.816 25.9589C133.223 25.9589 122.204 36.9887 122.204 50.5947C122.204 64.2007 133.223 75.2305 146.816 75.2305Z" fill="white"/>
        <path d="M160.503 75.2305C174.096 75.2305 185.116 64.2007 185.116 50.5947C185.116 36.9887 174.096 25.9589 160.503 25.9589C146.91 25.9589 135.891 36.9887 135.891 50.5947C135.891 64.2007 146.91 75.2305 160.503 75.2305Z" fill="white"/>
        <path d="M168.429 65.1357C182.022 65.1357 193.041 54.1058 193.041 40.4998C193.041 26.8939 182.022 15.864 168.429 15.864C154.835 15.864 143.816 26.8939 143.816 40.4998C143.816 54.1058 154.835 65.1357 168.429 65.1357Z" fill="white"/>
        <path d="M188.599 76.192C202.193 76.192 213.212 65.1622 213.212 51.5562C213.212 37.9502 202.193 26.9203 188.599 26.9203C175.006 26.9203 163.987 37.9502 163.987 51.5562C163.987 65.1622 175.006 76.192 188.599 76.192Z" fill="white"/>
        <path d="M235.665 97.8252C249.258 97.8252 260.277 86.7954 260.277 73.1894C260.277 59.5834 249.258 48.5535 235.665 48.5535C222.072 48.5535 211.052 59.5834 211.052 73.1894C211.052 86.7954 222.072 97.8252 235.665 97.8252Z" fill="white"/>
        <path d="M221.496 85.5663C235.09 85.5663 246.109 74.5365 246.109 60.9305C246.109 47.3245 235.09 36.2947 221.496 36.2947C207.903 36.2947 196.884 47.3245 196.884 60.9305C196.884 74.5365 207.903 85.5663 221.496 85.5663Z" fill="white"/>
        <path d="M212.372 73.3074C225.965 73.3074 236.985 62.2776 236.985 48.6716C236.985 35.0656 225.965 24.0358 212.372 24.0358C198.779 24.0358 187.759 35.0656 187.759 48.6716C187.759 62.2776 198.779 73.3074 212.372 73.3074Z" fill="white"/>
        <path d="M195.083 54.7999C208.676 54.7999 219.695 43.77 219.695 30.164C219.695 16.558 208.676 5.5282 195.083 5.5282C181.49 5.5282 170.47 16.558 170.47 30.164C170.47 43.77 181.49 54.7999 195.083 54.7999Z" fill="white"/>
        <path d="M227.261 75.2305C240.854 75.2305 251.873 64.2007 251.873 50.5947C251.873 36.9887 240.854 25.9589 227.261 25.9589C213.667 25.9589 202.648 36.9887 202.648 50.5947C202.648 64.2007 213.667 75.2305 227.261 75.2305Z" fill="white"/>
        <g opacity="0.1">
            <path opacity="0.1" d="M226.3 115.13C239.893 115.13 250.912 104.1 250.912 90.4945C250.912 76.8885 239.893 65.8586 226.3 65.8586C212.706 65.8586 201.687 76.8885 201.687 90.4945C201.687 104.1 212.706 115.13 226.3 115.13Z" fill="black"/>
            <path opacity="0.1" d="M200.124 108.4C213.717 108.4 224.737 97.3698 224.737 83.7638C224.737 70.1578 213.717 59.1279 200.124 59.1279C186.531 59.1279 175.512 70.1578 175.512 83.7638C175.512 97.3698 186.531 108.4 200.124 108.4Z" fill="black"/>
            <path opacity="0.1" d="M171.31 108.641C184.904 108.641 195.923 97.6108 195.923 84.0048C195.923 70.3988 184.904 59.369 171.31 59.369C157.717 59.369 146.698 70.3988 146.698 84.0048C146.698 97.6108 157.717 108.641 171.31 108.641Z" fill="black"/>
            <path opacity="0.1" d="M161.945 115.13C175.538 115.13 186.558 104.1 186.558 90.4945C186.558 76.8885 175.538 65.8586 161.945 65.8586C148.352 65.8586 137.333 76.8885 137.333 90.4945C137.333 104.1 148.352 115.13 161.945 115.13Z" fill="black"/>
            <path opacity="0.1" d="M146.096 117.294C159.689 117.294 170.709 106.265 170.709 92.6585C170.709 79.0525 159.689 68.0227 146.096 68.0227C132.503 68.0227 121.483 79.0525 121.483 92.6585C121.483 106.265 132.503 117.294 146.096 117.294Z" fill="black"/>
            <path opacity="0.1" d="M139.613 97.8252C153.206 97.8252 164.225 86.7954 164.225 73.1894C164.225 59.5834 153.206 48.5535 139.613 48.5535C126.019 48.5535 115 59.5834 115 73.1894C115 86.7954 126.019 97.8252 139.613 97.8252Z" fill="black"/>
            <path opacity="0.1" d="M146.816 75.2305C160.409 75.2305 171.429 64.2007 171.429 50.5947C171.429 36.9887 160.409 25.9589 146.816 25.9589C133.223 25.9589 122.204 36.9887 122.204 50.5947C122.204 64.2007 133.223 75.2305 146.816 75.2305Z" fill="black"/>
            <path opacity="0.1" d="M160.503 75.2305C174.096 75.2305 185.116 64.2007 185.116 50.5947C185.116 36.9887 174.096 25.9589 160.503 25.9589C146.91 25.9589 135.891 36.9887 135.891 50.5947C135.891 64.2007 146.91 75.2305 160.503 75.2305Z" fill="black"/>
            <path opacity="0.1" d="M168.429 65.1357C182.022 65.1357 193.042 54.1058 193.042 40.4998C193.042 26.8939 182.022 15.864 168.429 15.864C154.836 15.864 143.816 26.8939 143.816 40.4998C143.816 54.1058 154.836 65.1357 168.429 65.1357Z" fill="black"/>
            <path opacity="0.1" d="M188.599 76.192C202.193 76.192 213.212 65.1622 213.212 51.5562C213.212 37.9502 202.193 26.9203 188.599 26.9203C175.006 26.9203 163.987 37.9502 163.987 51.5562C163.987 65.1622 175.006 76.192 188.599 76.192Z" fill="black"/>
            <path opacity="0.1" d="M235.665 97.8252C249.258 97.8252 260.277 86.7954 260.277 73.1894C260.277 59.5834 249.258 48.5535 235.665 48.5535C222.072 48.5535 211.052 59.5834 211.052 73.1894C211.052 86.7954 222.072 97.8252 235.665 97.8252Z" fill="black"/>
            <path opacity="0.1" d="M221.496 85.5663C235.09 85.5663 246.109 74.5365 246.109 60.9305C246.109 47.3245 235.09 36.2947 221.496 36.2947C207.903 36.2947 196.884 47.3245 196.884 60.9305C196.884 74.5365 207.903 85.5663 221.496 85.5663Z" fill="black"/>
            <path opacity="0.1" d="M212.372 73.3075C225.965 73.3075 236.985 62.2776 236.985 48.6717C236.985 35.0657 225.965 24.0358 212.372 24.0358C198.779 24.0358 187.759 35.0657 187.759 48.6717C187.759 62.2776 198.779 73.3075 212.372 73.3075Z" fill="black"/>
            <path opacity="0.1" d="M195.083 54.7999C208.676 54.7999 219.695 43.77 219.695 30.164C219.695 16.558 208.676 5.5282 195.083 5.5282C181.49 5.5282 170.47 16.558 170.47 30.164C170.47 43.77 181.49 54.7999 195.083 54.7999Z" fill="black"/>
            <path opacity="0.1" d="M227.261 75.2305C240.854 75.2305 251.873 64.2007 251.873 50.5947C251.873 36.9887 240.854 25.9589 227.261 25.9589C213.667 25.9589 202.648 36.9887 202.648 50.5947C202.648 64.2007 213.667 75.2305 227.261 75.2305Z" fill="black"/>
        </g>
        <path d="M214.144 133.667C214.144 133.667 229.191 121.008 221.747 102.982L214.303 100.192L206.226 125.083L214.144 133.667Z" fill="white" fill-opacity="0.2"/>
        <path opacity="0.1" d="M214.946 99.3337L216.727 100.001L208.797 124.439L215.716 131.939C215.143 132.51 214.787 132.809 214.787 132.809L206.866 124.225L214.946 99.3337Z" fill="black"/>
        <path opacity="0.1" d="M139.519 188.233C213.515 188.233 273.5 178.182 273.5 165.783C273.5 153.384 213.515 143.333 139.519 143.333C65.5231 143.333 5.5376 153.384 5.5376 165.783C5.5376 178.182 65.5231 188.233 139.519 188.233Z" fill="white"/>
        <path d="M242.645 131.011C242.645 131.011 237.75 135.91 240.514 143.181C243.278 150.451 235.778 162.539 235.778 162.539L236.019 162.501C246.071 160.725 251.066 149.218 245.476 140.667C243.386 137.494 241.679 133.763 242.645 131.011Z" fill="white"/>
        <path d="M242.645 131.011C242.645 131.011 239.881 137.016 242.645 141.916C245.409 146.815 243.126 160.563 235.776 162.539" stroke="white" stroke-miterlimit="10"/>
        <path d="M251.363 150.827C251.363 150.827 245.777 149.938 245.269 154.948C244.761 159.958 234.526 160.652 234.526 160.652L234.719 160.78C243.167 166.323 251.242 164.315 250.024 156.946C249.574 154.206 249.61 151.454 251.363 150.827Z" fill="white"/>
        <path opacity="0.2" d="M251.363 150.827C251.363 150.827 245.777 149.938 245.269 154.948C244.761 159.958 234.526 160.652 234.526 160.652L234.719 160.78C243.167 166.323 251.242 164.315 250.024 156.946C249.574 154.206 249.61 151.454 251.363 150.827Z" fill="#F5F5F5"/>
        <path d="M251.363 150.827C251.363 150.827 247.029 151.791 247.383 155.726C247.737 159.662 240.945 164.402 234.529 160.652" stroke="white" stroke-miterlimit="10"/>
        <path d="M146.188 107.301L148.142 115.133C148.142 115.133 161.955 116.935 171.164 115.803C172.792 115.571 174.354 115.007 175.755 114.145C176.533 113.684 177.76 113.484 179.438 114.742C182.313 116.911 196.421 134.262 194.137 152.264C193.959 153.62 193.34 154.88 192.375 155.849C191.411 156.818 190.154 157.441 188.799 157.623C185.986 158.007 183.296 159.025 180.934 160.602L173.952 165.255L245.541 163.689L238.109 154.683C238.109 154.683 233.024 150.377 229.111 149.984C227.97 149.871 227.029 148.822 226.268 147.398C221.812 139.048 216.481 131.197 210.703 123.7C206.495 118.239 202.963 112.484 203.293 108.869C204.075 100.254 203.293 86.1591 203.293 86.1591L188.428 84.2023C188.428 84.2023 190.383 102.999 172.389 107.696C154.395 112.393 146.188 107.301 146.188 107.301Z" fill="white" fill-opacity="0.2"/>
        <g opacity="0.1">
            <path opacity="0.1" d="M158.315 110.826C158.315 110.826 166.53 115.916 184.526 111.217C202.523 106.517 200.565 87.7231 200.565 87.7231L203.394 88.0918C203.341 86.8869 203.3 86.1639 203.3 86.1639L188.436 84.2072C188.436 84.2072 190.391 103.004 172.397 107.701C154.403 112.397 146.186 107.31 146.186 107.31L148.14 115.142C148.14 115.142 153.418 115.832 159.625 116.089L158.315 110.826Z" fill="black"/>
            <path opacity="0.1" d="M193.061 164.125C195.424 162.548 198.113 161.53 200.927 161.146C202.278 160.967 203.533 160.346 204.497 159.382C205.462 158.417 206.082 157.161 206.262 155.808C208.559 137.807 194.443 120.425 191.576 118.265C188.446 115.916 186.881 118.656 186.881 118.656C185.773 118.947 184.647 119.162 183.51 119.299C188.581 126.047 195.835 138.99 194.137 152.283C193.957 153.636 193.337 154.891 192.373 155.856C191.408 156.821 190.154 157.441 188.802 157.621C185.989 158.004 183.299 159.023 180.937 160.599L173.955 165.253L191.954 164.86L193.061 164.125Z" fill="black"/>
        </g>
        <path d="M158.168 145.292C158.168 145.292 156.673 140.212 158.447 136.472C159.202 134.908 159.429 133.142 159.095 131.438C158.927 130.629 158.685 129.838 158.373 129.074" stroke="white" stroke-width="2" stroke-miterlimit="10"/>
        <path d="M159.489 126.71C159.489 127.331 158.363 129.139 158.363 129.139C158.363 129.139 157.243 127.331 157.243 126.71C157.243 126.41 157.362 126.124 157.573 125.912C157.784 125.701 158.071 125.582 158.37 125.582C158.669 125.582 158.955 125.701 159.167 125.912C159.378 126.124 159.497 126.41 159.497 126.71H159.489Z" fill="white"/>
        <path d="M161.353 130.158C161.016 130.681 159.09 131.585 159.09 131.585C159.09 131.585 159.126 129.457 159.463 128.934C159.541 128.805 159.645 128.693 159.767 128.604C159.889 128.516 160.028 128.453 160.175 128.419C160.322 128.386 160.474 128.382 160.623 128.408C160.771 128.434 160.913 128.49 161.039 128.572C161.166 128.655 161.275 128.761 161.359 128.886C161.444 129.011 161.503 129.152 161.532 129.3C161.561 129.448 161.56 129.601 161.53 129.748C161.499 129.896 161.439 130.036 161.353 130.16V130.158Z" fill="white"/>
        <path d="M161.271 136.048C160.715 136.327 158.599 136.134 158.599 136.134C158.599 136.134 159.701 134.315 160.257 134.035C160.39 133.969 160.534 133.929 160.681 133.918C160.829 133.907 160.977 133.925 161.117 133.972C161.258 134.018 161.388 134.092 161.5 134.189C161.612 134.285 161.704 134.403 161.771 134.536C161.837 134.668 161.877 134.812 161.888 134.96C161.899 135.107 161.881 135.256 161.834 135.396C161.788 135.537 161.714 135.667 161.618 135.779C161.521 135.891 161.403 135.983 161.271 136.05V136.048Z" fill="white"/>
        <path d="M160.207 140.499C159.706 140.87 157.587 141.036 157.587 141.036C157.587 141.036 158.367 139.055 158.868 138.687C159.109 138.523 159.404 138.459 159.69 138.508C159.977 138.557 160.234 138.715 160.407 138.949C160.58 139.184 160.655 139.476 160.618 139.764C160.581 140.053 160.433 140.316 160.207 140.499Z" fill="white"/>
        <path d="M156.723 131.71C157.169 132.144 159.249 132.594 159.249 132.594C159.249 132.594 158.741 130.527 158.286 130.093C158.07 129.895 157.785 129.789 157.492 129.797C157.199 129.806 156.921 129.928 156.717 130.139C156.512 130.349 156.398 130.631 156.398 130.924C156.398 131.218 156.512 131.499 156.716 131.71H156.723Z" fill="white"/>
        <path d="M155.543 136.92C156.099 137.2 158.216 137.007 158.216 137.007C158.216 137.007 157.113 135.187 156.557 134.908C156.29 134.773 155.981 134.75 155.697 134.844C155.413 134.938 155.178 135.141 155.044 135.408C154.909 135.675 154.886 135.985 154.98 136.269C155.074 136.553 155.276 136.788 155.543 136.922V136.92Z" fill="white"/>
        <path d="M155.091 142.147C155.592 142.518 157.71 142.684 157.71 142.684C157.71 142.684 156.93 140.704 156.43 140.335C156.189 140.171 155.894 140.108 155.608 140.157C155.321 140.206 155.064 140.364 154.891 140.598C154.718 140.832 154.642 141.124 154.68 141.413C154.717 141.701 154.864 141.965 155.091 142.147Z" fill="white"/>
        <path d="M154.915 144.795C154.915 144.795 157.648 144.248 158.375 143.518C159.102 142.788 162.381 141.513 162.747 142.424C163.113 143.335 167.665 146.434 164.567 146.981C161.468 147.528 157.282 147.704 156.381 147.345C155.481 146.986 154.915 144.795 154.915 144.795Z" fill="white"/>
        <path opacity="0.2" d="M164.57 146.651C161.473 147.198 157.284 147.374 156.384 147.015C155.69 146.738 155.209 145.403 155.019 144.783L154.927 144.803C154.927 144.803 155.474 146.991 156.384 147.355C157.294 147.719 161.483 147.538 164.57 146.991C165.463 146.832 165.718 146.463 165.622 145.993C165.545 146.292 165.234 146.528 164.57 146.651Z" fill="black"/>
        <path d="M200.218 161.944C200.218 161.944 208.508 160.284 210.72 158.071C212.933 155.859 222.878 151.986 223.983 154.753C225.088 157.519 238.91 166.923 229.521 168.583C220.131 170.243 207.414 170.795 204.651 169.689C201.887 168.583 200.218 161.944 200.218 161.944Z" fill="white"/>
        <path opacity="0.2" d="M229.511 167.554C220.122 169.214 207.405 169.766 204.641 168.66C202.537 167.817 201.073 163.768 200.495 161.886L200.218 161.944C200.218 161.944 201.877 168.583 204.639 169.689C207.4 170.795 220.114 170.243 229.509 168.583C232.222 168.101 232.997 166.978 232.704 165.556C232.475 166.484 231.529 167.2 229.511 167.554Z" fill="black"/>
        <path d="M256.324 114.793C256.294 115.783 255.984 116.745 255.431 117.567C254.874 116.748 254.559 115.788 254.523 114.798C254.523 113.267 254.918 112.026 255.417 112.024C255.915 112.022 256.32 113.263 256.324 114.793Z" fill="white"/>
        <path d="M188.361 113.448C188.328 114.438 188.015 115.399 187.46 116.22C186.905 115.399 186.593 114.438 186.56 113.448C186.56 111.918 186.962 110.677 187.46 110.677C187.959 110.677 188.361 111.918 188.361 113.448Z" fill="white"/>
        <path d="M262.432 140.757C262.987 141.577 263.3 142.538 263.333 143.528C262.402 143.191 261.585 142.598 260.976 141.817C260.075 140.578 259.673 139.337 260.075 139.046C260.477 138.754 261.534 139.52 262.432 140.757Z" fill="white"/>
        <path d="M233.672 126.247C233.639 127.237 233.327 128.198 232.772 129.018C232.217 128.198 231.904 127.237 231.871 126.247C231.871 124.717 232.273 123.476 232.772 123.476C233.27 123.476 233.672 124.721 233.672 126.247Z" fill="white"/>
        <path d="M216.848 117.041C216.814 118.032 216.502 118.992 215.947 119.813C215.392 118.992 215.08 118.032 215.047 117.041C215.047 115.511 215.449 114.27 215.947 114.27C216.446 114.27 216.848 115.511 216.848 117.041Z" fill="white"/>
        <path d="M206.411 122.654C206.874 123.53 207.08 124.519 207.006 125.507C206.113 125.073 205.362 124.394 204.839 123.55C204.078 122.222 203.813 120.945 204.244 120.697C204.675 120.449 205.653 121.326 206.411 122.654Z" fill="white"/>
        <path d="M198.612 148.111C197.868 148.765 196.954 149.194 195.976 149.35C196.194 148.384 196.681 147.499 197.38 146.798C198.494 145.752 199.677 145.198 200.016 145.559C200.355 145.921 199.727 147.066 198.612 148.111Z" fill="white"/>
        <path opacity="0.1" d="M198.612 148.111C197.868 148.765 196.954 149.194 195.976 149.35C196.194 148.384 196.681 147.499 197.38 146.798C198.494 145.752 199.677 145.198 200.016 145.559C200.355 145.921 199.727 147.066 198.612 148.111Z" fill="black"/>
        <path d="M214.986 146.54C214.242 147.193 213.328 147.623 212.35 147.779C212.569 146.813 213.055 145.928 213.754 145.227C214.868 144.181 216.051 143.627 216.39 143.988C216.729 144.35 216.101 145.492 214.986 146.54Z" fill="white"/>
        <path opacity="0.1" d="M214.986 146.54C214.242 147.193 213.328 147.623 212.35 147.779C212.569 146.813 213.055 145.928 213.754 145.227C214.868 144.181 216.051 143.627 216.39 143.988C216.729 144.35 216.101 145.492 214.986 146.54Z" fill="black"/>
        <path d="M218.126 163.154C217.381 163.807 216.468 164.236 215.49 164.392C215.708 163.423 216.195 162.536 216.896 161.833C218.01 160.787 219.193 160.233 219.532 160.594C219.872 160.956 219.243 162.105 218.126 163.154Z" fill="white"/>
        <path opacity="0.1" d="M218.126 163.154C217.381 163.807 216.468 164.236 215.49 164.392C215.708 163.423 216.195 162.536 216.896 161.833C218.01 160.787 219.193 160.233 219.532 160.594C219.872 160.956 219.243 162.105 218.126 163.154Z" fill="black"/>
        <path d="M242.835 161.975C242.835 161.975 246.954 161.156 248.052 160.064C249.15 158.973 254.095 157.062 254.644 158.426C255.193 159.789 262.059 164.431 257.391 165.248C252.723 166.065 246.405 166.339 245.033 165.795C243.661 165.25 242.835 161.975 242.835 161.975Z" fill="white"/>
        <path opacity="0.2" d="M257.398 164.744C252.73 165.563 246.413 165.836 245.04 165.291C243.996 164.874 243.268 162.881 242.98 161.949L242.842 161.978C242.842 161.978 243.666 165.253 245.04 165.8C246.415 166.347 252.73 166.072 257.398 165.253C258.747 165.012 259.132 164.462 258.987 163.759C258.865 164.214 258.395 164.568 257.398 164.744Z" fill="black"/>
        <path d="M226.3 109.602C239.893 109.602 250.912 98.5723 250.912 84.9663C250.912 71.3603 239.893 60.3304 226.3 60.3304C212.706 60.3304 201.687 71.3603 201.687 84.9663C201.687 98.5723 212.706 109.602 226.3 109.602Z" fill="white"/>
        <path d="M200.124 102.871C213.717 102.871 224.737 91.8416 224.737 78.2356C224.737 64.6296 213.717 53.5997 200.124 53.5997C186.531 53.5997 175.512 64.6296 175.512 78.2356C175.512 91.8416 186.531 102.871 200.124 102.871Z" fill="white"/>
        <path d="M171.311 103.112C184.904 103.112 195.923 92.0826 195.923 78.4766C195.923 64.8706 184.904 53.8408 171.311 53.8408C157.718 53.8408 146.698 64.8706 146.698 78.4766C146.698 92.0826 157.718 103.112 171.311 103.112Z" fill="white"/>
        <path d="M161.945 109.602C175.538 109.602 186.558 98.5723 186.558 84.9663C186.558 71.3603 175.538 60.3304 161.945 60.3304C148.352 60.3304 137.333 71.3603 137.333 84.9663C137.333 98.5723 148.352 109.602 161.945 109.602Z" fill="white"/>
        <path d="M146.096 111.766C159.69 111.766 170.709 100.736 170.709 87.1303C170.709 73.5243 159.69 62.4944 146.096 62.4944C132.503 62.4944 121.484 73.5243 121.484 87.1303C121.484 100.736 132.503 111.766 146.096 111.766Z" fill="white"/>
        <path d="M139.613 92.297C153.206 92.297 164.225 81.2671 164.225 67.6612C164.225 54.0552 153.206 43.0253 139.613 43.0253C126.019 43.0253 115 54.0552 115 67.6612C115 81.2671 126.019 92.297 139.613 92.297Z" fill="white"/>
        <path d="M146.816 69.7023C160.409 69.7023 171.429 58.6725 171.429 45.0665C171.429 31.4605 160.409 20.4307 146.816 20.4307C133.223 20.4307 122.204 31.4605 122.204 45.0665C122.204 58.6725 133.223 69.7023 146.816 69.7023Z" fill="white"/>
        <path d="M160.503 69.7023C174.096 69.7023 185.116 58.6725 185.116 45.0665C185.116 31.4605 174.096 20.4307 160.503 20.4307C146.91 20.4307 135.891 31.4605 135.891 45.0665C135.891 58.6725 146.91 69.7023 160.503 69.7023Z" fill="white"/>
        <path d="M168.429 59.6075C182.022 59.6075 193.041 48.5776 193.041 34.9716C193.041 21.3657 182.022 10.3358 168.429 10.3358C154.835 10.3358 143.816 21.3657 143.816 34.9716C143.816 48.5776 154.835 59.6075 168.429 59.6075Z" fill="white"/>
        <path d="M188.599 70.6639C202.193 70.6639 213.212 59.634 213.212 46.028C213.212 32.422 202.193 21.3922 188.599 21.3922C175.006 21.3922 163.987 32.422 163.987 46.028C163.987 59.634 175.006 70.6639 188.599 70.6639Z" fill="white"/>
        <path d="M235.665 92.297C249.258 92.297 260.277 81.2671 260.277 67.6612C260.277 54.0552 249.258 43.0253 235.665 43.0253C222.072 43.0253 211.052 54.0552 211.052 67.6612C211.052 81.2671 222.072 92.297 235.665 92.297Z" fill="white"/>
        <path d="M221.496 80.0382C235.09 80.0382 246.109 69.0083 246.109 55.4023C246.109 41.7963 235.09 30.7665 221.496 30.7665C207.903 30.7665 196.884 41.7963 196.884 55.4023C196.884 69.0083 207.903 80.0382 221.496 80.0382Z" fill="white"/>
        <path d="M212.372 67.7793C225.965 67.7793 236.985 56.7495 236.985 43.1435C236.985 29.5375 225.965 18.5076 212.372 18.5076C198.779 18.5076 187.759 29.5375 187.759 43.1435C187.759 56.7495 198.779 67.7793 212.372 67.7793Z" fill="white"/>
        <path d="M195.083 49.2717C208.676 49.2717 219.695 38.2418 219.695 24.6358C219.695 11.0298 208.676 0 195.083 0C181.49 0 170.47 11.0298 170.47 24.6358C170.47 38.2418 181.49 49.2717 195.083 49.2717Z" fill="white"/>
        <path d="M227.261 69.7023C240.854 69.7023 251.873 58.6725 251.873 45.0665C251.873 31.4605 240.854 20.4307 227.261 20.4307C213.667 20.4307 202.648 31.4605 202.648 45.0665C202.648 58.6725 213.667 69.7023 227.261 69.7023Z" fill="white"/>
        <path opacity="0.1" d="M250.804 48.9246C250.804 48.9246 227.881 38.0442 214.011 57.3278L250.804 48.9246Z" fill="black"/>
        <path opacity="0.1" d="M190.595 26.8818C190.595 26.8818 165.239 26.1155 160.26 49.3463L190.595 26.8818Z" fill="black"/>
        <path opacity="0.1" d="M159.075 77.2861C159.075 77.2861 136.153 66.4032 122.283 85.682L159.075 77.2861Z" fill="black"/>
        <path opacity="0.1" d="M58.7541 138.699C58.8692 138.866 58.96 139.048 59.0238 139.241C61.3399 141.964 62.5749 144.506 60.3479 144.571C58.275 144.632 55.7856 148.343 55.1909 149.28C55.2102 149.353 55.2335 149.425 55.2607 149.495C55.2607 149.495 58.1763 144.641 60.5574 144.574C62.9385 144.506 61.3639 141.617 58.7541 138.699Z" fill="black"/>
        <path d="M61.2125 140.906C61.2125 141.516 61.1451 142.01 61.0609 142.01C60.9766 142.01 60.9092 141.528 60.9092 140.906C60.9092 140.284 60.9934 140.583 61.0777 140.583C61.162 140.583 61.2125 140.296 61.2125 140.906Z" fill="white"/>
        <path d="M62.0549 141.631C61.5204 141.923 61.0533 142.099 61.0148 142.024C60.9763 141.949 61.3759 141.653 61.9104 141.361C62.4449 141.07 62.233 141.282 62.2739 141.361C62.3149 141.441 62.5893 141.349 62.0549 141.631Z" fill="white"/>
        <path opacity="0.1" d="M51.7677 138.699C51.6527 138.866 51.5619 139.048 51.4981 139.241C49.182 141.964 47.9469 144.506 50.1739 144.571C52.2468 144.632 54.7362 148.343 55.3309 149.28C55.3117 149.353 55.2884 149.425 55.2611 149.495C55.2611 149.495 52.3455 144.641 49.9644 144.574C47.5834 144.506 49.1555 141.617 51.7677 138.699Z" fill="black"/>
        <path d="M49.3096 140.906C49.3096 141.516 49.377 142.01 49.4613 142.01C49.5455 142.01 49.6129 141.528 49.6129 140.906C49.6129 140.284 49.5287 140.583 49.4444 140.583C49.3601 140.583 49.3096 140.296 49.3096 140.906Z" fill="white"/>
        <path d="M48.4641 141.631C48.9986 141.923 49.4657 142.099 49.5042 142.024C49.5427 141.949 49.1431 141.653 48.6086 141.361C48.0741 141.07 48.286 141.282 48.2451 141.361C48.2041 141.441 47.9393 141.349 48.4641 141.631Z" fill="white"/>
        <path d="M247.874 176.47C248.315 176.11 248.636 175.625 248.796 175.078C248.916 174.523 248.68 173.861 248.151 173.658C247.558 173.432 246.925 173.841 246.446 174.258C245.967 174.675 245.416 175.147 244.787 175.058C245.11 174.765 245.352 174.393 245.488 173.979C245.625 173.565 245.652 173.122 245.567 172.694C245.54 172.517 245.465 172.35 245.351 172.212C245.021 171.86 244.426 172.012 244.031 172.289C242.779 173.171 242.43 174.873 242.423 176.405C242.298 175.853 242.404 175.278 242.399 174.718C242.394 174.159 242.24 173.514 241.763 173.22C241.468 173.061 241.136 172.982 240.8 172.991C240.237 172.969 239.611 173.027 239.226 173.439C238.744 173.95 238.872 174.81 239.288 175.367C239.705 175.923 240.336 176.282 240.918 176.673C241.385 176.951 241.783 177.33 242.083 177.784C242.119 177.847 242.148 177.913 242.17 177.981H245.697C246.487 177.578 247.22 177.07 247.874 176.47Z" fill="white"/>
        <path opacity="0.1" d="M184.798 157.601C185.431 157.787 188.05 158.565 190.732 159.633C192.058 160.144 193.35 160.741 194.599 161.419C194.859 161.566 195.107 161.713 195.341 161.86C195.952 162.219 196.5 162.679 196.961 163.219C198.511 165.226 200.789 166.308 201.923 166.749C201.996 166.276 201.931 165.793 201.735 165.356L196.679 161.802L197.401 161.77L196.458 161.303L197.023 161.267L190.176 158.185C190.176 158.185 187.918 158.03 184.798 157.601Z" fill="black"/>
        <path opacity="0.1" d="M192.875 142.072L193.333 143.477L197.479 139.202C197.479 139.202 197.296 138.778 197.024 138.185C196.487 139.291 193.985 141.234 192.875 142.072Z" fill="black"/>
        <g opacity="0.05">
            <path opacity="0.05" d="M199.638 140.593L199.226 140.455L197.329 138.265C197.366 138.161 197.37 138.048 197.341 137.942L199.638 140.593Z" fill="black"/>
            <path opacity="0.05" d="M202.281 144.651C201.745 144.422 201.291 144.033 200.982 143.537C200.673 143.042 200.524 142.463 200.555 141.88C200.555 141.805 200.555 141.735 200.555 141.667L200.594 141.713L202.101 142.217C201.982 142.509 201.921 142.822 201.923 143.137C201.908 143.665 202.031 144.187 202.281 144.651Z" fill="black"/>
            <path opacity="0.05" d="M187.627 157.582C190.776 158.679 195.039 160.406 196.337 162.086L196.433 162.207C192.983 159.838 185.407 157.683 185.407 157.683C186.148 157.692 186.889 157.658 187.627 157.582Z" fill="black"/>
            <path opacity="0.05" d="M201.99 165.86C202.488 164.725 203.434 163.539 204.429 162.486C206.879 159.93 208.433 156.647 208.859 153.131L208.899 152.777C210.91 150.765 215.496 152.464 215.496 152.464C215.737 148.555 214.331 145.988 213.274 144.634L213.551 144.73C213.551 144.73 217.256 147.56 216.881 153.721C216.881 153.721 212.306 152.035 210.284 154.035L210.243 154.389C209.818 157.905 208.263 161.188 205.813 163.744C204.814 164.795 203.872 165.978 203.374 167.118C203.374 167.118 200.312 166.241 198.169 163.879C199.324 164.747 200.615 165.417 201.99 165.86Z" fill="black"/>
        </g>
        <path opacity="0.1" d="M210.978 153.293C211.732 153.732 212.531 154.087 213.362 154.353C214.548 154.719 215.909 154.334 216.566 154.097V153.158L211.029 152.529L210.978 153.293Z" fill="black"/>
        <path d="M216.628 152.341L216.951 153.688C216.951 153.688 214.986 154.604 213.354 154.102C212.253 153.729 211.202 153.222 210.224 152.594C209.984 152.468 211.228 151.085 211.228 151.085L216.628 152.341Z" fill="#CEDAD5"/>
        <path opacity="0.1" d="M180.443 167.682C179.605 167.038 178.672 166.528 177.679 166.171C176.731 165.847 175.838 165.38 175.03 164.788" fill="black"/>
        <path opacity="0.05" d="M163.521 177.663C163.503 177.739 163.483 177.814 163.46 177.888C163.337 177.818 163.161 177.683 163.521 177.663Z" fill="#00FF00"/>
        <path opacity="0.2" d="M153.632 180.572C154.92 181.158 164.603 179.451 165.91 179.215C165.937 179.34 165.988 179.459 166.06 179.565C166.06 179.565 155.004 181.577 153.622 180.948C152.9 180.625 152.734 180.201 152.83 179.815C152.91 180.085 153.136 180.353 153.632 180.572Z" fill="white"/>
        <path opacity="0.1" d="M120.86 161.635L121.611 162.315C121.611 161.004 122.48 159.799 123.075 159.122C122.903 158.822 122.777 158.496 122.704 158.158L120.86 161.635Z" fill="black"/>
    </g>
    <defs>
        <clipPath id="clip0">
            <rect width="275" height="188.235" fill="white"/>
        </clipPath>
    </defs>
</svg>
